# xmcd
#
# Track frame offsets:
#	150
#	15772
#	27554
#	48505
#	64617
#	81636
#	95275
#	109040
#	122771
#	145068
#	163578
#	175235
#	186494
#	201532
#	219168
#	236381
#
# Disc length: 3304 seconds
#
# Revision: 1
# Processed by: cddbd v1.5.2PL0 Copyright (c) Steve Scherf et al.
# Submitted via: audiograbber 1.83.01
#
DISCID=db0ce610
DTITLE=Chris Isaak - Christmas live special guests
DYEAR=2008
DGENRE=Christmas
TTITLE0=Chris Isaak - Blue christmas (live)
TTITLE1=Chris Isaak - Mele kalikimaka (live)
TTITLE2=Chris Isaak - Washington Square (live)
TTITLE3=Chris Isaak feat. Michael Bublé - The christmas song(live)
TTITLE4=Chris Isaak feat. Michael Bublé - Let it snow (live)
TTITLE5=Chris Isaak - Gotta be good (live)
TTITLE6=Chris Isaak - Pretty paper (live)
TTITLE7=Chris Isaak - Hey Santa! (live)
TTITLE8=Chris Isaak - Brightest star (live)
TTITLE9=Chris Isaak feat. Brian McKnight - Have yourself a merry little christm
TTITLE9=as (live)
TTITLE10=Chris Isaak - Last month of the year (live)
TTITLE11=Chris Isaak - Santa bring my baby back (live)
TTITLE12=Chris Isaak - White christmas (live)
TTITLE13=Chris Isaak - Christmas on TV (live)
TTITLE14=Chris Isaak feat. Stevie Nicks - Santa Claus is coming to town (live)
TTITLE15=Chris Isaak feat. Nicks and Bublé and McKnight - Rudolph the red nosed rei
TTITLE15=ndeer (live)
EXTD=saturn.de 081208
EXTT0=
EXTT1=
EXTT2=
EXTT3=
EXTT4=
EXTT5=
EXTT6=
EXTT7=
EXTT8=
EXTT9=
EXTT10=
EXTT11=
EXTT12=
EXTT13=
EXTT14=
EXTT15=
PLAYORDER=
